<svg xmlns="http://www.w3.org/2000/svg" xmlns:xlink="http://www.w3.org/1999/xlink" viewBox="0 0 1366.93 767.5"><defs><style>.cls-1{fill:url(#Degradado_sin_nombre_18);}</style><linearGradient id="Degradado_sin_nombre_18" x1="1093.82" y1="142.56" x2="15.56" y2="743.32" gradientUnits="userSpaceOnUse"><stop offset="0" stop-color="#009ee9"/><stop offset="1" stop-color="#55fff7"/></linearGradient></defs><title>bg</title><g id="Capa_2" data-name="Capa 2"><g id="Capa_1-2" data-name="Capa 1"><path class="cls-1" d="M277.7,681.21c6.2,3.07,12.59,6.55,19.51,6.37,6-.17,11.6-3.13,17-5.8A209,209,0,0,1,463.3,669c10.48,3.07,20.9,7,31.81,7.43,10.69.42,21.17-2.55,31.66-4.66a202.46,202.46,0,0,1,126.14,15.6c6.59,3.14,13.39,6.73,20.67,6.41,5.95-.25,11.43-3.09,16.8-5.64C748.76,660.47,820,661.54,877.51,691c5.67,2.91,11.45,6.14,17.81,6.5,8.09.45,15.58-3.79,22.79-7.47a206.18,206.18,0,0,1,156.91-12c9.08,3,18.16,6.7,27.72,7,6.68.21,13.29-1.25,19.82-2.7,27.83-6.18,54.56-10.58,80.48-11.32,46.17-1.3,89.76,9.06,132.44,41.76a215.67,215.67,0,0,1,31.45,29.58L1366,383s-13-259-301-259S683,0,683,0H0L1,767.5C56.4,677.87,174.19,630,277.7,681.21Z"/></g></g></svg>